<mxfile host="Electron" modified="2024-06-01T09:57:08.123Z" agent="Mozilla/5.0 (Windows NT 10.0; Win64; x64) AppleWebKit/537.36 (KHTML, like Gecko) draw.io/22.1.2 Chrome/114.0.5735.289 Electron/25.9.4 Safari/537.36" etag="lg8Adc500JDb2v2nFMOj" version="22.1.2" type="device">
  <diagram name="第 1 页" id="SAHKPxjK9V1qAOfatdbY">
    <mxGraphModel dx="1221" dy="823" grid="1" gridSize="10" guides="1" tooltips="1" connect="1" arrows="1" fold="1" page="1" pageScale="1" pageWidth="827" pageHeight="1169" math="0" shadow="0">
      <root>
        <mxCell id="0" />
        <mxCell id="1" parent="0" />
      </root>
    </mxGraphModel>
  </diagram>
</mxfile>
